<?xml version="1.0" standalone="no"?>
<!DOCTYPE svg PUBLIC "-//W3C//DTD SVG 20010904//EN"
 "http://www.w3.org/TR/2001/REC-SVG-20010904/DTD/svg10.dtd">
<svg version="1.0" xmlns="http://www.w3.org/2000/svg"
 width="500.000000pt" height="500.000000pt" viewBox="0 0 500.000000 500.000000"
 preserveAspectRatio="xMidYMid meet">

<g transform="translate(0.000000,500.000000) scale(0.100000,-0.100000)"
fill="#000000" stroke="none">
<path d="M0 2500 l0 -2500 1253 0 1252 0 -82 48 c-44 26 -527 306 -1072 622
l-990 575 0 1255 0 1255 990 575 c545 316 1028 596 1072 622 l82 48 -1252 0
-1253 0 0 -2500z"/>
<path d="M2513 4994 c3 -3 484 -284 1069 -624 l1063 -618 0 -1252 0 -1252
-1063 -618 c-585 -340 -1066 -621 -1069 -624 -4 -3 555 -6 1240 -6 l1247 0 0
2500 0 2500 -1247 0 c-685 0 -1244 -3 -1240 -6z"/>
<path d="M1438 4339 l-1048 -611 0 -1228 0 -1228 1052 -612 c579 -336 1059
-609 1067 -607 9 2 484 277 1056 609 l1040 606 0 1232 0 1232 -1040 606 c-572
333 -1049 606 -1060 608 -12 2 -430 -236 -1067 -607z m452 -805 c0 -5 574
-2128 586 -2166 5 -17 -11 -18 -244 -18 l-250 0 -20 78 c-12 42 -42 159 -69
260 l-47 182 -305 -2 -304 -3 -66 -257 -66 -258 -238 0 c-187 0 -238 3 -234
13 2 6 136 499 298 1095 l294 1082 332 0 c183 0 333 -3 333 -6z m1798 -558
c132 -34 269 -113 358 -207 268 -285 283 -873 30 -1191 -91 -115 -230 -199
-393 -240 -127 -32 -361 -32 -483 0 -292 77 -473 272 -546 587 -25 106 -25
357 -1 462 23 101 71 220 116 289 86 134 266 259 431 300 132 33 359 33 488 0z"/>
<path d="M1526 3073 c-16 -51 -206 -799 -206 -810 0 -10 47 -13 225 -13 124 0
225 3 225 7 0 3 -48 192 -107 420 -102 396 -120 450 -137 396z"/>
<path d="M3314 2639 c-99 -38 -169 -123 -194 -239 -8 -37 -11 -127 -8 -275 4
-197 6 -226 26 -275 31 -79 73 -124 150 -162 164 -81 362 -28 440 119 46 88
55 152 50 389 -4 191 -7 214 -28 268 -31 76 -103 148 -176 176 -73 27 -189 27
-260 -1z"/>
</g>
</svg>
